<svg height="512" viewBox="0 0 60 50" width="512" xmlns="http://www.w3.org/2000/svg"><g id="Page-1" fill="none" fill-rule="evenodd"><g id="020---Loading-Music" fill-rule="nonzero"><path id="Shape" d="m8 31v16c-3.87 0-7-3.58-7-8s3.13-8 7-8z" fill="#a4c2f7"/><rect id="Rectangle-path" fill="#e8edfc" height="20" rx="2" width="10" x="8" y="29"/><path id="Shape" d="m59 39c0 4.42-3.13 8-7 8v-16c3.87 0 7 3.58 7 8z" fill="#a4c2f7"/><rect id="Rectangle-path" fill="#e8edfc" height="20" rx="2" width="10" x="42" y="29"/><path id="Shape" d="m48.76 14.12c-1.2705497 1.0590099-3.1566841.8984878-4.23-.36-3.6101014-4.28464138-8.9272343-6.757488-14.53-6.757488s-10.9198986 2.47284662-14.53 6.757488c-.6913089.8199245-1.7675292 1.2087571-2.8232592 1.0200283-1.0557299-.1887288-1.9305789-.9263467-2.295-1.935-.36442097-1.0086533-.1630497-2.1351038.5282592-2.9550283 4.7512742-5.63690315 11.7478033-8.88999442 19.12-8.88999442s14.3687258 3.25309127 19.12 8.88999442c1.0606887 1.2700208.9000531 3.1574891-.36 4.23z" fill="#e8edfc"/><path id="Shape" d="m49.12 9.89c-4.7490528-5.63980805-11.7470138-8.89356712-19.12-8.89-.5 0-1 .018-1.5.048 6.8372747.40661876 13.207533 3.60331702 17.62 8.842 1.0606887 1.2700208.9000531 3.1574891-.36 4.23-.1325883.1082224-.2737154.2055399-.422.291 1.258974.7328294 2.862839.4517112 3.7975263-.6656133.9346873-1.1173246.9281299-2.7456266-.0155263-3.8553867z" fill="#cad9fc"/><path id="Shape" d="m14.669 14.413c-.7763132-.4355874-1.3155631-1.1972181-1.4685355-2.0741434s.0965548-1.7761516.6795355-2.4488566c4.4066483-5.24561866 10.7805344-8.44305223 17.62-8.839-7.8857437-.48815778-15.5359699 2.79119961-20.62 8.839-.94403962 1.1115182-.94956666 2.7416255-.0130861 3.8595198.9364806 1.1178944 2.5423301 1.3981219 3.8020861.6634802z" fill="#fff"/><path id="Shape" d="m8 47c.0032948 1.1032019.89679813 1.9967052 2 2h3c-1.1032019-.0032948-1.9967052-.8967981-2-2-3.87 0-7-3.58-7-8s3.13-8 7-8c.0032948-1.1032019.8967981-1.9967052 2-2h-3c-1.10320187.0032948-1.9967052.8967981-2 2-3.87 0-7 3.58-7 8s3.13 8 7 8z" fill="#fff"/><path id="Shape" d="m16.4 3.842 1.047 1.7c-2.1828929 1.34789097-4.1401515 3.03079594-5.8 4.987l-1.528-1.285c1.7967572-2.11957045 3.9164456-3.94261727 6.281-5.402z" fill="#fff"/><g fill="#428dff"><path id="Shape" d="m7.169 47.951c.40555204 1.2202127 1.54516336 2.0450321 2.831 2.049h6c1.6568542 0 3-1.3431458 3-3v-16c0-1.6568542-1.3431458-3-3-3h-6c-.34143967.0033144-.67974302.0655622-1 .184v-2.184c.00105743-3.6644923.96416074-7.2644918 2.793-10.44 1.5768875.5874956 3.3528498.1236099 4.441-1.16 3.4200958-4.059657 8.4577168-6.40270532 13.766-6.40270532s10.3459042 2.34304832 13.766 6.40270532c1.0862105 1.2911773 2.8673153 1.7592779 4.448 1.169 1.8243501 3.1737539 2.7849373 6.770267 2.786 10.431v2.184c-.320257-.1184378-.6585603-.1806856-1-.184h-6c-1.6568542 0-3 1.3431458-3 3v16c0 1.6568542 1.3431458 3 3 3h6c1.2858366-.0039679 2.425448-.8287873 2.831-2.049 4.022-.469 7.169-4.304 7.169-8.951 0-4.581-3.06-8.365-7-8.922v-4.078c-.0019647-4.0717987-1.0878096-8.0696824-3.146-11.583 1.2832796-1.4817982 1.2947419-3.677887.027-5.173-4.9368211-5.8659338-12.2141004-9.24962524-19.881-9.244-2.3885688.01084036-4.7650811.33938889-7.067.977-2.2970656.65556481-4.4947206 1.61933055-6.533 2.865-.2307832.13890438-.395081.36576738-.4550705.6283632-.0599896.26259582-.0105019.53829773.1370705.7636368.2973808.45369441.9000442.59144606 1.365.312 1.8811247-1.14989078 3.9091886-2.03996495 6.029-2.646 2.1252979-.58718592 4.3191021-.88982599 6.524-.9 7.0772302-.00513731 13.7948007 3.11828409 18.352 8.533.3422531.4054632.5093589.9303111.4645344 1.4590155-.0448246.5287044-.2979052 1.0179282-.7035344 1.3599845-.853663.6816216-2.0913238.5766532-2.818-.239-3.8001067-4.51033563-9.3972091-7.1134576-15.295-7.1134576s-11.4948933 2.60312197-15.295 7.1134576c-.7124473.8441672-1.9743327.9509473-2.8185.2385-.8441672-.7124474-.9509473-1.9743328-.2385-2.8185.3474876-.4229116.2904005-1.04660408-.1280888-1.39940508-.4184894-.352801-1.0428531-.30359522-1.4009112.11040508-1.26774185 1.495113-1.25627957 3.6912018.027 5.173-2.05819038 3.5133176-3.14403534 7.5112013-3.146 11.583v4.078c-3.94.557-7 4.341-7 8.922 0 4.647 3.147 8.482 7.169 8.951zm42.831.049h-3v-6c0-.5522847-.4477153-1-1-1s-1 .4477153-1 1v6h-1c-.5522847 0-1-.4477153-1-1v-16c0-.5522847.4477153-1 1-1h1v2c0 .5522847.4477153 1 1 1s1-.4477153 1-1v-2h3c.5522847 0 1 .4477153 1 1v16c0 .5522847-.4477153 1-1 1zm8-9c0 3.462-2.167 6.337-5 6.9v-13.8c2.833.563 5 3.438 5 6.9zm-48-9h3v2c0 .5522847.4477153 1 1 1s1-.4477153 1-1v-2h1c.5522847 0 1 .4477153 1 1v16c0 .5522847-.4477153 1-1 1h-1v-6c0-.5522847-.4477153-1-1-1s-1 .4477153-1 1v6h-3c-.55228475 0-1-.4477153-1-1v-16c0-.5522847.44771525-1 1-1zm-3 2.1v13.8c-2.833-.558-5-3.433-5-6.9s2.167-6.337 5-6.9z"/><path id="Shape" d="m14 39c.5522847 0 1-.4477153 1-1v-2c0-.5522847-.4477153-1-1-1s-1 .4477153-1 1v2c0 .5522847.4477153 1 1 1z"/><path id="Shape" d="m46 35c-.5522847 0-1 .4477153-1 1v2c0 .5522847.4477153 1 1 1s1-.4477153 1-1v-2c0-.5522847-.4477153-1-1-1z"/><path id="Shape" d="m13.713 8.048c-.5522847.00276141-1.0022386-.44271526-1.005-.995s.4427153-1.00223856.995-1.005h.01c.5522847 0 1 .44771525 1 1s-.4477153 1-1 1z"/><path id="Shape" d="m31 31c0-.5522847-.4477153-1-1-1s-1 .4477153-1 1v2c0 .5522847.4477153 1 1 1s1-.4477153 1-1z"/><path id="Shape" d="m30 42c-.5522847 0-1 .4477153-1 1v2c0 .5522847.4477153 1 1 1s1-.4477153 1-1v-2c0-.5522847-.4477153-1-1-1z"/><path id="Shape" d="m27.172 33.757-1.415-1.414c-.2527654-.2525868-.6210837-.3511379-.966213-.25853s-.6146361.3623054-.707.7075c-.0923638.3451947.0064476.7134432.259213.96603l1.415 1.414c.3907415.3904653 1.0240347.3902414 1.4145-.0005.3904653-.3907415.3902414-1.0240347-.0005-1.4145z"/><path id="Shape" d="m32.828 42.243 1.415 1.414c.2527654.2525868.6210837.3511379.966213.25853s.6146362-.3623053.707-.7075c.0923639-.3451947-.0064476-.7134432-.259213-.96603l-1.415-1.414c-.3907415-.3904653-1.0240347-.3902414-1.4145.0005-.3904653.3907415-.3902414 1.0240347.0005 1.4145z"/><path id="Shape" d="m26 38c0-.5522847-.4477153-1-1-1h-2c-.5522847 0-1 .4477153-1 1s.4477153 1 1 1h2c.5522847 0 1-.4477153 1-1z"/><path id="Shape" d="m38 38c0-.5522847-.4477153-1-1-1h-2c-.5522847 0-1 .4477153-1 1s.4477153 1 1 1h2c.5522847 0 1-.4477153 1-1z"/><path id="Shape" d="m25.05 43.95c.2651948-.0000566.5195073-.1054506.707-.293l1.415-1.414c.3907414-.3904653.3909653-1.0237585.0005-1.4145-.3904653-.3907414-1.0237585-.3909653-1.4145-.0005l-1.415 1.414c-.2866239.2859-.3725934.7164072-.2177586 1.0904636.1548349.3740564.5199229.6178554.9247586.6175364z"/><path id="Shape" d="m33.535 35.464c.2650514.0002087.5193437-.1048173.707-.292l1.415-1.414c.2527654-.2525868.3515768-.6208353.259213-.96603-.0923639-.3451946-.3618707-.6148921-.707-.7075s-.7134476.0059432-.966213.25853l-1.415 1.414c-.2859079.2859943-.3714219.7160366-.216678 1.0896546.1547439.3736179.5192821.6172591.923678.6173454z"/></g></g></g></svg>