<svg id="Layer_1" enable-background="new 0 0 512 512" height="512" viewBox="0 0 512 512" width="512" xmlns="http://www.w3.org/2000/svg"><g><path d="m29.275 359.97s94.323 22.78 244.858 22.78 217.979-50.178 217.979-50.178c5.784-20.872 8.888-42.858 8.888-65.572 0-135.31-109.69-245-245-245s-245 109.69-245 245c0 32.912 6.505 64.299 18.275 92.97z" fill="#ffe400"/><path d="m338.482 379.476c5.669-17.113 8.746-35.406 8.746-54.421 0-95.52-77.434-172.955-172.954-172.955-75.478 0-139.651 48.354-163.264 115.769.114 32.594 6.599 63.682 18.264 92.099s94.323 22.78 244.858 22.78c23.447.002 44.876-1.216 64.35-3.272z" fill="#fff442"/><g><g><path d="m174.274 236.955c-4.142 0-7.5-3.358-7.5-7.5v-16.389c0-4.142 3.358-7.5 7.5-7.5 4.143 0 7.5 3.358 7.5 7.5v16.389c0 4.142-3.357 7.5-7.5 7.5z" fill="#feac00"/></g></g><g><g><path d="m126.481 249.764c-2.592 0-5.113-1.345-6.502-3.751l-8.194-14.193c-2.071-3.587-.842-8.174 2.745-10.245 3.585-2.071 8.175-.843 10.245 2.745l8.194 14.193c2.071 3.587.842 8.174-2.745 10.245-1.18.682-2.47 1.006-3.743 1.006z" fill="#feac00"/></g></g><g><g><path d="m91.475 284.757c-1.272 0-2.562-.324-3.743-1.006l-14.193-8.194c-3.587-2.071-4.816-6.658-2.745-10.245 2.07-3.587 6.655-4.817 10.245-2.745l14.193 8.194c3.587 2.071 4.816 6.658 2.745 10.245-1.388 2.405-3.91 3.751-6.502 3.751z" fill="#feac00"/></g></g><g><g><path d="m78.673 332.556h-16.388c-4.143 0-7.5-3.358-7.5-7.5s3.357-7.5 7.5-7.5h16.389c4.143 0 7.5 3.358 7.5 7.5-.001 4.142-3.358 7.5-7.501 7.5z" fill="#feac00"/></g><g><path d="m286.263 332.556h-16.389c-4.143 0-7.5-3.358-7.5-7.5s3.357-7.5 7.5-7.5h16.389c4.143 0 7.5 3.358 7.5 7.5s-3.357 7.5-7.5 7.5z" fill="#feac00"/></g></g><g><g><path d="m257.074 284.757c-2.592 0-5.113-1.345-6.502-3.751-2.071-3.587-.842-8.174 2.745-10.245l14.193-8.194c3.585-2.07 8.175-.842 10.245 2.745 2.071 3.587.842 8.174-2.745 10.245l-14.193 8.194c-1.181.681-2.471 1.006-3.743 1.006z" fill="#feac00"/></g></g><g><g><path d="m222.068 249.764c-1.272 0-2.561-.324-3.743-1.006-3.587-2.071-4.816-6.658-2.745-10.245l8.194-14.193c2.07-3.587 6.655-4.817 10.245-2.745 3.587 2.071 4.816 6.658 2.745 10.245l-8.194 14.193c-1.389 2.406-3.91 3.751-6.502 3.751z" fill="#feac00"/></g></g><g><path d="m136.045 361.97c22.31 0 44.48-3.762 65.458-11.357 9.917-3.591 21.011-6.643 30.07-6.643 5.092 0 9.7.971 14.163 2.453 2.021-6.771 3.123-13.939 3.123-21.367 0-41.192-33.393-74.584-74.584-74.584s-74.585 33.392-74.585 74.584c0 13.434 3.57 26.027 9.786 36.914z" fill="#feac00"/></g><path d="m297.573 359.97c-31 0-44-18-66-18-9.059 0-20.153 3.052-30.07 6.643-20.977 7.595-43.148 11.357-65.458 11.357h-106.77c36.617 89.202 124.327 152.03 226.725 152.03 24.258 0 47.685-3.543 69.812-10.109 4.369-39.129 8.594-83.095 8.594-104.587l-.001-37.333h-36.832z" fill="#ff9364"/><path d="m268.02 353.93c-12.898-5.23-22.992-11.96-36.447-11.96-9.059 0-20.153 3.052-30.07 6.643-20.977 7.595-43.148 11.357-65.458 11.357h-106.77c32.847 80.018 106.81 138.802 195.605 150.061 18.315-18.408 37.257-49.375 1.019-79.281-56.596-46.706 42.12-76.82 42.121-76.82z" fill="#d85e41"/><path d="m492.112 332.572c-24.391 6.133-47.451 13.213-60.75 18.64-14.179 5.785-29.34 8.758-44.654 8.758h-13.998c2.223 10.118 3.148 20.417.761 28.228-3.437 11.249-2.804 52.997-1.112 94.454 57.933-31.324 101.804-85.312 119.753-150.08z" fill="#ff9364"/><path d="m380.048 187.519c-1.47-.496-3.046-.722-4.665-.63-6.986.401-13.854-1.206-19.9-4.359-9.885 14.128-15.04 29.266-17.44 38.199-.743 2.763-4.373 3.338-5.983.974-.321-.471-.649-.943-.984-1.416-7.468-10.543-17.414-19.068-28.763-25.242-10.939-5.95-24.371-15.733-32.483-27.564-3.293 1.874-7.166 2.724-11.199 2.369-5.03-.44-9.498-2.674-12.637-6.233 3.994 13.707 15.567 33.514 47.915 50.976 5.256 2.837 9.853 6.763 13.515 11.483 27.229 37.25 25.482 69.894 25.482 69.894s0 56.667 0 101.333c0 25.289-5.8 70.875-10.833 105.673 18.458-5.158 36.033-12.427 52.457-21.524-2.124-38.186-3.394-80.477.376-92.816 4.889-16-3.451-41.58-9.553-56.855-3.632-9.091-5.543-18.778-5.543-28.568v-62.127c0-23.837 10.248-41.758 20.238-53.567z" fill="#c04a27"/><g><path d="m444.683 282.399c-1.008 0-2.02.27-2.925.838-3.38 2.12-7.592 2.67-11.555 1.508-.583-.171-1.144-.387-1.693-.625-3.771 3.167-8.362 6.031-13.972 8.256-22.034 8.738-44.935 27.867-54.665 36.552-3.02 2.696-4.422 6.761-3.71 10.747 1.622 9.083 12.638 12.77 19.408 6.502 12.523-11.595 31.173-27.452 50.467-38.801 11.249-6.617 18.438-14.875 23.035-22.965-1.144-1.298-2.759-2.012-4.39-2.012z" fill="#d85e41"/></g><path d="m284.675 510.324c-.351-75.55-29.158-100.36-30.391-101.384-3.189-2.647-7.946-2.235-10.594.951-2.646 3.186-2.24 7.888.946 10.534.25.218 25.025 22.553 25.046 91.197 5.042-.279 10.039-.719 14.993-1.298z" fill="#f9d778"/><path d="m242.106 446.742c-3.756-1.746-8.249-.128-9.994 3.629-1.744 3.757-.145 8.201 3.611 9.945.956.467 23.416 11.904 23.416 51.393 0 .089.01.175.013.263 5.031-.064 10.026-.272 14.979-.636-.156-49.22-30.719-63.989-32.025-64.594z" fill="#fff9ad"/><path d="m225.898 508.709c0-29.56-18.303-45.595-19.082-46.263-3.146-2.697-7.898-2.349-10.594.796-2.696 3.144-2.351 7.863.793 10.56.56.493 13.528 12.181 13.867 34.042 4.909.914 9.869 1.681 14.876 2.297.09-.464.14-.942.14-1.432z" fill="#f9d778"/><path d="m210.818 507.622c-2.768-18.906-15.195-28.701-15.723-29.108-3.278-2.533-8.015-1.949-10.548 1.328-2.532 3.278-1.955 7.967 1.323 10.499.282.227 5.922 4.874 8.812 13.913 5.317 1.37 10.705 2.564 16.156 3.58-.008-.07-.009-.14-.02-.212z" fill="#fff9ad"/><path d="m409.135 423.52c-.765.748-18.719 18.66-18.719 47.929 0 .127.013.251.019.377 5.543-3.645 10.928-7.508 16.145-11.579 3.366-16.127 12.915-25.874 13.072-26.032 2.936-2.9 2.978-7.63.089-10.582-2.896-2.959-7.645-3.012-10.606-.113z" fill="#f9d778"/><path d="m293.488 480.784c-.516.447-12.66 11.172-15.394 29.838-.019.131-.025.26-.037.391 5.264-.471 10.477-1.116 15.639-1.915 2.725-10.618 9.461-16.837 9.656-17.015 3.096-2.719 3.419-7.433.715-10.55-2.713-3.127-7.451-3.464-10.579-.749z" fill="#fff9ad"/><g><path d="m143.007 189.972c-.552 0-1.11-.061-1.671-.189-7.35-1.673-13.236-6.02-17.182-9.788-4.872 3.28-9.557 4.607-10.284 4.801-4.005 1.064-8.111-1.318-9.176-5.32-1.062-3.991 1.303-8.086 5.283-9.166 1.614-.453 6.354-2.334 8.993-5.598 1.482-1.835 3.747-2.865 6.099-2.781 2.356.083 4.537 1.27 5.886 3.205 1.614 2.271 7.264 8.555 13.709 10.022 4.039.919 6.568 4.939 5.649 8.977-.792 3.479-3.884 5.837-7.306 5.837z" fill="#b2381b"/></g><g><path d="m98.697 143.105c-.552 0-1.111-.061-1.671-.189-4.24-.965-7.772-3.175-10.423-5.384-2.696 1.49-4.968 2.133-5.387 2.244-4.005 1.065-8.111-1.318-9.176-5.321-1.059-3.982 1.292-8.067 5.257-9.158.733-.215 3.041-1.133 4.192-2.557 1.482-1.835 3.753-2.865 6.098-2.781 2.357.083 4.538 1.271 5.887 3.205.772 1.072 3.767 4.418 6.88 5.126 4.039.919 6.569 4.938 5.65 8.977-.792 3.479-3.884 5.837-7.307 5.838z" fill="#b2381b"/></g><g><path d="m142.993 189.972c-3.423 0-6.515-2.359-7.307-5.837-.919-4.039 1.611-8.058 5.65-8.977 6.445-1.467 12.095-7.751 13.727-10.048 1.359-1.913 3.545-3.093 5.891-3.166 2.369-.076 4.6.943 6.075 2.768 3.16 3.909 8.899 5.574 8.956 5.589 4.003 1.065 6.385 5.173 5.32 9.176-1.064 4.004-5.172 6.386-9.176 5.32-.728-.194-5.412-1.521-10.284-4.801-3.945 3.768-9.832 8.116-17.182 9.788-.559.127-1.119.188-1.67.188z" fill="#d85e41"/></g><g><path d="m98.683 143.105c-3.423 0-6.515-2.359-7.307-5.837-.919-4.039 1.61-8.058 5.649-8.977 3.113-.709 6.107-4.054 6.91-5.17 1.35-1.934 3.515-3.1 5.871-3.183 2.338-.076 4.6.968 6.083 2.802 1.211 1.499 3.719 2.431 4.13 2.541 4.003 1.064 6.385 5.173 5.32 9.176-1.064 4.003-5.171 6.386-9.176 5.321-.419-.112-2.69-.754-5.388-2.245-2.65 2.209-6.183 4.42-10.423 5.385-.557.125-1.118.187-1.669.187z" fill="#d85e41"/></g><ellipse cx="192.021" cy="300.186" fill="#fdca00" rx="28.87" ry="28.87" transform="matrix(.924 -.383 .383 .924 -100.26 96.334)"/><path d="m372.734 407.197c-21.856 21.856-40.066.001-40.067 0-1.138 26.147-6.162 65.141-10.593 95.778 18.458-5.158 36.033-12.427 52.457-21.524-1.48-26.61-2.543-55.201-1.777-74.273-.007.007-.014.013-.02.019z" fill="#b2381b"/><path d="m308.964 199.047c-2.156-1.425-4.373-2.763-6.651-4.002-10.939-5.95-24.371-15.733-32.483-27.564-3.293 1.874-7.166 2.724-11.199 2.369-5.03-.44-9.498-2.674-12.637-6.233 3.994 13.707 15.567 33.514 47.915 50.976-3.59-15.657 15.055-15.546 15.055-15.546z" fill="#b2381b"/><g><path d="m307.939 150.49c-4.233-4.723-5.809-10.799-4.435-17.108 1.145-5.258 4.292-9.701 8.86-12.51 4.553-2.8 10.092-3.646 15.202-2.319 3.409.889 6.975-.801 8.451-4.018 2.487-5.425 7.456-9.491 13.29-10.878 1.761-.419 3.247-1.501 4.185-3.047.946-1.561 1.221-3.4.772-5.179-1.954-7.755-.568-16.135 3.803-22.991 3.191-5.006 7.639-8.818 12.861-11.13-3.626-4.844-9.292-7.968-15.546-8.21-3.028-.118-5.672-2.201-6.173-5.19-1.326-7.898-7.218-14.316-14.895-16.373-2.939-.787-4.932-3.563-4.679-6.595 1.082-12.946-10.623-24.633-24.6-21.755-2.795.576-5.339 1.694-7.545 3.224-2.503 1.735-5.85 1.262-8.053-.84-8.57-8.174-22.82-7.256-30.188 2.139-1.884 2.402-5.312 3.107-7.992 1.645-10.544-5.754-24.104-.877-28.664 10.168-1.153 2.793-4.082 4.306-7.041 3.695-13.886-2.866-26.999 9.924-24.258 23.872.629 3.204-1.077 6.481-4.178 7.504-8.184 2.699-13.869 10.371-14.061 18.987-.074 3.318-2.764 5.907-6.076 6.141-11.764.831-21.243 11.93-18.631 24.613 1.804 8.759 8.935 15.03 17.264 16.191 3.221.449 5.623 3.354 5.449 6.602-.731 13.627 12.884 24.681 26.165 20.747 3.058-.906 6.243.65 7.603 3.535 5.187 11.005 19.301 14.84 29.371 8.523 3.009-1.888 6.902-.81 8.799 2.193 6.998 11.081 23.524 12.572 32.402 2.802 2.225-2.448 6.037-2.674 8.598-.581 9.911 8.104 25.421 4.709 31.156-6.601.318-.627.722-1.178 1.186-1.652-3.165-1.107-6.077-3.011-8.402-5.604z" fill="#a3ea6e"/></g><path d="m307.939 150.49c-4.233-4.723-5.809-10.799-4.435-17.108.583-2.68 1.693-5.144 3.239-7.292-1.741-.27-3.595.152-5.094 1.282-11.35 8.559-28.583 2.35-32.07-11.393-.743-2.929-3.384-4.903-6.4-4.72-11.927.723-22.237-9.344-21.667-21.342.145-3.049-1.987-5.825-4.971-6.47-11.671-2.524-18.721-14.941-15.112-26.221.928-2.901-.108-6.117-2.762-7.611-2.339-1.316-4.457-3.116-6.196-5.379-5.124-6.668-5.349-14.835-2.193-21.378-11.715.795-21.374 12.07-18.985 24.229.629 3.204-1.077 6.481-4.178 7.504-8.184 2.699-13.869 10.371-14.061 18.987-.074 3.318-2.764 5.907-6.076 6.141-11.764.831-21.243 11.93-18.631 24.613 1.804 8.759 8.935 15.03 17.264 16.191 3.221.449 5.623 3.354 5.449 6.602-.731 13.627 12.884 24.681 26.165 20.747 3.058-.906 6.243.65 7.603 3.535 5.187 11.005 19.301 14.84 29.371 8.523 3.009-1.888 6.902-.81 8.799 2.193 6.998 11.081 23.524 12.572 32.402 2.802 2.225-2.448 6.037-2.674 8.598-.581 9.911 8.104 25.421 4.709 31.156-6.601.318-.627.722-1.178 1.186-1.652-3.164-1.104-6.076-3.008-8.401-5.601z" fill="#85d249"/><path d="m380.539 55.99c-.955.933-2.174 1.594-3.523 1.852-17.434 3.329-28.495 20.94-24.206 37.955.717 2.842-.997 5.722-3.849 6.4-6.218 1.479-11.57 5.746-14.307 11.713-1.177 2.567-3.978 3.902-6.711 3.192-11.217-2.913-23.287 3.938-25.905 15.962-3.26 14.967 9.56 26.932 22.873 25.523 5.41-.572 10.508 2.449 12.898 7.337 6.959 14.232 21.958 22.866 37.631 21.964 4.646-.267 8.964 2.341 10.956 6.547 4.097 8.649 13.771 13.255 22.867 11.673 1.734-1.302 2.654-3.563 2.202-5.866-.883-4.49.627-9.188 4.037-12.565 3.448-3.417 8.216-4.898 12.762-3.958 2.693.552 5.306-.816 6.347-3.337 1.51-3.659 4.573-6.535 8.404-7.889 3.812-1.348 7.983-1.039 11.44.848 2.409 1.313 5.499.677 7.19-1.48 2.412-3.075 6.089-5.004 10.089-5.293 3.131-.225 6.213.58 8.77 2.226-20.707-47.269-55.897-86.739-99.965-112.804z" fill="#85d249"/><g><path d="m423.309 156.351c-.363-3.534-3.371-6.23-6.906-5.878-11.828 1.179-22.764-8.533-22.516-20.697.065-3.188-2.096-5.998-5.237-6.547-13.645-2.384-20.923-18.339-14.208-30.219 1.6-2.831.741-6.501-1.944-8.336-6.605-4.513-10.171-12.687-8.541-20.916-9.402 7.328-14.223 19.835-11.147 32.038.717 2.842-.997 5.722-3.849 6.4-6.218 1.479-11.57 5.746-14.307 11.713-1.177 2.567-3.978 3.902-6.711 3.192-11.217-2.913-23.287 3.938-25.905 15.962-3.26 14.967 9.56 26.932 22.873 25.523 5.41-.572 10.508 2.449 12.898 7.337 6.959 14.232 21.958 22.866 37.631 21.964 4.646-.267 8.964 2.341 10.956 6.547 4.097 8.649 13.771 13.255 22.867 11.673 1.734-1.302 2.654-3.563 2.202-5.866-.883-4.49.627-9.188 4.037-12.565 3.448-3.417 8.216-4.898 12.762-3.958 2.693.552 5.306-.816 6.347-3.337 1.048-2.539 2.855-4.686 5.137-6.224-8.386-1.785-15.508-8.741-16.439-17.806z" fill="#60b550"/></g><path d="m460.858 171.243c-1.396 1.781-3.938 2.303-5.924 1.219-7.816-4.265-17.868-.65-21.248 7.537-.855 2.07-3.026 3.192-5.22 2.739-10.294-2.125-20.014 7.356-17.983 17.696.467 2.375-.798 4.805-3.097 5.563-6.067 2.001-10.281 7.688-10.423 14.075-.055 2.46-2.049 4.379-4.504 4.552-8.72.616-15.747 8.844-13.811 18.246 1.337 6.492 6.623 11.141 12.797 12.002 2.387.333 4.168 2.487 4.039 4.894-.542 10.102 9.551 18.296 19.396 15.38 2.267-.671 4.628.482 5.636 2.62 3.845 8.157 14.308 11.001 21.772 6.318 2.231-1.399 5.117-.601 6.523 1.626 5.188 8.214 17.438 9.32 24.019 2.077 1.649-1.815 4.475-1.983 6.373-.43 6.399 5.232 15.944 3.994 21.109-1.951.453-6.077.688-12.214.688-18.406 0-35.525-7.571-69.279-21.172-99.75-6.259-3.245-14.398-1.837-18.97 3.993z" fill="#a3ea6e"/><g fill="#85d249"><path d="m488.467 268.668c-.633-2.369-3.023-3.885-5.423-3.376-9.573 2.029-18.867-6.028-18.274-15.725.161-2.628-1.714-4.964-4.342-5.132-8.794-.564-15.621-8.987-13.972-17.853.432-2.324-.81-4.64-3.041-5.42-9.692-3.389-13.092-15.937-6.748-23.816 1.512-1.878 1.326-4.666-.417-6.331-2.459-2.351-4.036-5.464-4.528-8.789-.955.545-2.099.754-3.256.515-10.294-2.125-20.014 7.356-17.983 17.696.467 2.375-.798 4.805-3.097 5.563-6.067 2.001-10.281 7.688-10.423 14.075-.055 2.46-2.049 4.379-4.504 4.552-8.72.616-15.747 8.844-13.811 18.246 1.337 6.492 6.623 11.141 12.797 12.002 2.387.333 4.168 2.487 4.039 4.894-.542 10.102 9.551 18.296 19.396 15.38 2.267-.671 4.628.482 5.636 2.62 3.845 8.157 14.308 11.001 21.772 6.318 2.231-1.399 5.117-.601 6.523 1.626 5.188 8.214 17.438 9.32 24.019 2.077 1.649-1.815 4.475-1.983 6.373-.43 6.399 5.232 15.944 3.994 21.109-1.951.144-1.938.258-3.884.357-5.835-5.603-.989-10.627-5.014-12.202-10.906z"/><ellipse cx="270.396" cy="74.736" rx="10.977" ry="10.977" transform="matrix(.707 -.707 .707 .707 26.351 213.089)"/><path d="m270.396 42.739c0 3.031-2.457 5.489-5.488 5.489s-5.489-2.457-5.489-5.489c0-3.031 2.457-5.489 5.489-5.489 3.031 0 5.488 2.457 5.488 5.489z"/></g><circle cx="420.813" cy="121.562" fill="#60b550" r="8.563"/><circle cx="410" cy="100" fill="#60b550" r="5.25"/><circle cx="468.375" cy="222.875" fill="#85d249" r="8.375"/><path d="m475.666 201.458c0 2.738-2.22 4.958-4.958 4.958s-4.958-2.22-4.958-4.958 2.22-4.958 4.958-4.958 4.958 2.22 4.958 4.958z" fill="#85d249"/></g></svg>