<svg height="512" viewBox="0 0 60 60" width="512" xmlns="http://www.w3.org/2000/svg"><g id="Page-1" fill="none" fill-rule="evenodd"><g id="043---Self-Chat" fill-rule="nonzero"><path id="Shape" d="m45 54v3c-.0032948 1.1032019-.8967981 1.9967052-2 2h-26c-1.1032019-.0032948-1.9967052-.8967981-2-2v-3c.002401-5.9753017 3.549177-11.3799128 9.03-13.76 3.6340736 2.3467316 8.3059264 2.3467316 11.94 0 1.730947.7480377 3.3025953 1.8206962 4.63 3.16 2.8217111 2.8050799 4.4057795 6.6212447 4.4 10.6z" fill="#e8edfc"/><path id="Shape" d="m40.6 43.4c-1.3274047-1.3393038-2.899053-2.4119623-4.63-3.16-.4654617.2992999-.9528455.5630487-1.458.789 4.6304066 2.6790718 7.4835604 7.6214139 7.488 12.971v3c-.0032948 1.1032019-.8967981 1.9967052-2 2h3c1.1032019-.0032948 1.9967052-.8967981 2-2v-3c.0057795-3.9787553-1.5782889-7.7949201-4.4-10.6z" fill="#cad9fc"/><path id="Shape" d="m41 31c0 6.0751322-4.9248678 11-11 11s-11-4.9248678-11-11 4.9248678-11 11-11c2.9193358-.0063904 5.7209433 1.1504826 7.7852303 3.2147697 2.0642871 2.064287 3.2211601 4.8658945 3.2147697 7.7852303z" fill="#e8edfc"/><path id="Shape" d="m30 20c-.5020055.0039684-1.0031606.0420562-1.5.114 5.4451724.7433238 9.5043995 5.394326 9.5043995 10.89s-4.0592271 10.1466762-9.5043995 10.89c4.0756171.5698631 8.128455-1.1828762 10.5045037-4.5429047 2.3760487-3.3600286 2.6778629-7.7653093.7822688-11.4179962-1.895594-3.652687-5.6715175-5.9417898-9.7867725-5.9330991z" fill="#cad9fc"/><path id="Shape" d="m23 4v8c0 1.6568542-1.3431458 3-3 3h-1.75l.75 6-6.86-6h-8.14c-1.65685425 0-3-1.3431458-3-3v-8c0-1.65685425 1.34314575-3 3-3h16c1.6568542 0 3 1.34314575 3 3z" fill="#a4c2f7"/><path id="Shape" d="m20 1h-3c1.6568542 0 3 1.34314575 3 3v8c0 1.6568542-1.3431458 3-3 3h-1.75l.382 3.054 3.368 2.946-.75-6h1.75c1.6568542 0 3-1.3431458 3-3v-8c0-1.65685425-1.3431458-3-3-3z" fill="#7facfa"/><path id="Shape" d="m37 4v8c0 1.6568542 1.3431458 3 3 3h1.75l-.75 6 6.86-6h8.14c1.6568542 0 3-1.3431458 3-3v-8c0-1.65685425-1.3431458-3-3-3h-16c-1.6568542 0-3 1.34314575-3 3z" fill="#a4c2f7"/><path id="Shape" d="m41.368 18.054-.368 2.946 6.86-6h-3z" fill="#7facfa"/><path id="Shape" d="m56 1h-3c1.6568542 0 3 1.34314575 3 3v8c0 1.6568542-1.3431458 3-3 3h3c1.6568542 0 3-1.3431458 3-3v-8c0-1.65685425-1.3431458-3-3-3z" fill="#7facfa"/><path id="Shape" d="m4 12v-8c0-1.65685425 1.34314575-3 3-3h-3c-1.65685425 0-3 1.34314575-3 3v8c0 1.6568542 1.34314575 3 3 3h3c-1.65685425 0-3-1.3431458-3-3z" fill="#fff"/><path id="Shape" d="m18 57v-3c.002401-5.9753017 3.549177-11.3799128 9.03-13.76-3.8639473-2.4937892-5.7670158-7.1293802-4.769913-11.6187965.9971028-4.4894164 4.6835825-7.8835644 9.239913-8.5072035-.4968548-.0718033-.9980004-.1098904-1.5-.114-4.8771095-.0006871-9.1723756 3.2101249-10.55216 7.8879869-1.3797843 4.677862.4853879 9.7057599 4.58216 12.3520131-5.480823 2.3800872-9.027599 7.7846983-9.03 13.76v3c.0032948 1.1032019.8967981 1.9967052 2 2h3c-1.1032019-.0032948-1.9967052-.8967981-2-2z" fill="#fff"/><path id="Shape" d="m18.632 18.054-3.492-3.054h-3l6.86 6z" fill="#fff"/><path id="Shape" d="m14.888 48.766 1.89.656c-.4073309 1.1769161-.6571652 2.4025498-.743 3.645l-.035.933v3h-2v-3l.04-1.065c.0975087-1.4209918.382651-2.8228292.848-4.169z" fill="#fff"/><g fill="#428dff"><path id="Shape" d="m15.059 54c-.5522847.0030375-1.0024624-.4422153-1.0054999-.9945-.0030376-.5522847.4422152-1.0024624.9944999-1.0055h.011c.5522847 0 1 .4477153 1 1s-.4477153 1-1 1z"/><path id="Shape" d="m37.844 40.061c3.7934963-3.2773404 5.1499364-8.5674936 3.4014734-13.2658392-1.748463-4.6983457-6.2333332-7.814688-11.2464734-7.814688s-9.4980104 3.1163423-11.2464734 7.814688c-1.748463 4.6983456-.3920229 9.9884988 3.4014734 13.2658392-3.3970099 1.926042-5.9790284 5.0201289-7.266 8.707-.0981375.2557095-.0835952.5409902.0400359.7853949s.3448264.4251509.6089641.4976051c.5130654.1383812 1.0479994-.1318876 1.241-.627 1.239793-3.537941 3.8390382-6.4355487 7.222-8.051 3.7107332 2.16989 8.3032668 2.16989 12.014 0 1.4443602.6793826 2.7590813 1.6056096 3.885 2.737 2.6354761 2.6149887 4.1126497 6.1773508 4.101 9.89v3c0 .5522847-.4477153 1-1 1h-5v-4c0-.5522847-.4477153-1-1-1s-1 .4477153-1 1v4h-12v-4c0-.5522847-.4477153-1-1-1s-1 .4477153-1 1v4h-5c-.5522847 0-1-.4477153-1-1s-.4477153-1-1-1-1 .4477153-1 1c0 1.6568542 1.3431458 3 3 3h26c1.6568542 0 3-1.3431458 3-3v-3c-.0111141-5.7757886-3.1262556-11.0997167-8.156-13.939zm-17.844-9.061c0-5.5228475 4.4771525-10 10-10s10 4.4771525 10 10-4.4771525 10-10 10c-5.5203344-.0060624-9.9939376-4.4796656-10-10z"/><path id="Shape" d="m19 22c.2867756-.0000809.5597155-.1232772.7494778-.3382901.1897622-.2150129.2780824-.5011475.2425222-.7857099l-.609-4.876h.617c2.209139 0 4-1.790861 4-4v-8c0-2.209139-1.790861-4-4-4h-16c-2.209139 0-4 1.790861-4 4v8c0 2.209139 1.790861 4 4 4h7.765l6.577 5.753c.182222.1592375.4160053.246995.658.247zm-1.318-3.481-4.882-4.272c-.1827403-.1596913-.4173169-.2474798-.66-.247h-8.14c-1.1045695 0-2-.8954305-2-2v-8c0-1.1045695.8954305-2 2-2h16c1.1045695 0 2 .8954305 2 2v8c0 1.1045695-.8954305 2-2 2h-1.75c-.2867756.0000809-.5597155.1232772-.7494778.3382901-.1897622.2150129-.2780824.5011475-.2425222.7857099z"/><path id="Shape" d="m5 7h2c.55228475 0 1-.44771525 1-1s-.44771525-1-1-1h-2c-.55228475 0-1 .44771525-1 1s.44771525 1 1 1z"/><path id="Shape" d="m11 7h8c.5522847 0 1-.44771525 1-1s-.4477153-1-1-1h-8c-.5522847 0-1 .44771525-1 1s.4477153 1 1 1z"/><path id="Shape" d="m20 10c0-.55228475-.4477153-1-1-1h-2c-.5522847 0-1 .44771525-1 1 0 .5522847.4477153 1 1 1h2c.5522847 0 1-.4477153 1-1z"/><path id="Shape" d="m13 9h-8c-.55228475 0-1 .44771525-1 1 0 .5522847.44771525 1 1 1h8c.5522847 0 1-.4477153 1-1 0-.55228475-.4477153-1-1-1z"/><path id="Shape" d="m56 0h-16c-2.209139 0-4 1.790861-4 4v8c0 2.209139 1.790861 4 4 4h.617l-.609 4.876c-.0513049.4115563.1567567.8120679.5229814 1.0067219.3662248.194654.8145949.1430458 1.1270186-.1297219l6.577-5.753h7.765c2.209139 0 4-1.790861 4-4v-8c0-2.209139-1.790861-4-4-4zm2 12c0 1.1045695-.8954305 2-2 2h-8.14c-.2419947.000005-.475778.0877625-.658.247l-4.884 4.272.424-3.395c.0355602-.2845624-.05276-.570697-.2425222-.7857099-.1897623-.2150129-.4627022-.3382092-.7494778-.3382901h-1.75c-1.1045695 0-2-.8954305-2-2v-8c0-1.1045695.8954305-2 2-2h16c1.1045695 0 2 .8954305 2 2z"/><path id="Shape" d="m55 5h-2c-.5522847 0-1 .44771525-1 1s.4477153 1 1 1h2c.5522847 0 1-.44771525 1-1s-.4477153-1-1-1z"/><path id="Shape" d="m41 7h8c.5522847 0 1-.44771525 1-1s-.4477153-1-1-1h-8c-.5522847 0-1 .44771525-1 1s.4477153 1 1 1z"/><path id="Shape" d="m43 9h-2c-.5522847 0-1 .44771525-1 1 0 .5522847.4477153 1 1 1h2c.5522847 0 1-.4477153 1-1 0-.55228475-.4477153-1-1-1z"/><path id="Shape" d="m55 9h-8c-.5522847 0-1 .44771525-1 1 0 .5522847.4477153 1 1 1h8c.5522847 0 1-.4477153 1-1 0-.55228475-.4477153-1-1-1z"/></g></g></g></svg>