<svg id="Capa_1" enable-background="new 0 0 512 512" height="512" viewBox="0 0 512 512" width="512" xmlns="http://www.w3.org/2000/svg"><g><path d="m318.378 469.11c12.997 0 22.851-11.691 20.701-24.509-11.668-69.539-72.147-122.527-145.002-122.527s-133.336 52.987-145.004 122.527c-2.151 12.818 7.703 24.509 20.7 24.509z" fill="#8ea3e2"/><path d="m120.312 341.897c-37.076 21.545-63.876 58.826-71.239 102.704-2.151 12.818 7.703 24.509 20.7 24.509h75.184c-34.618-36.818-34.618-100.574-24.645-127.213z" fill="#6a96d7"/><path d="m201.04 417.849c23.365-9.504 51.351-37.961 63.883-77.602-21.014-11.578-45.159-18.173-70.847-18.173s-49.834 6.595-70.847 18.173c12.532 39.641 40.517 68.098 63.883 77.602 4.467 1.818 9.46 1.818 13.928 0z" fill="#fbf1cf"/><path d="m388.151 248.597c0-26.887-26.317-48.684-52.741-48.684s-47.845 21.796-47.845 48.684c0 26.887 20.197 48.684 46.621 48.684 26.424-.001 53.965-21.797 53.965-48.684z" fill="#ffbe9d"/><path d="m0 248.597c0-26.887 26.317-48.684 52.741-48.684s47.845 21.796 47.845 48.684c0 26.887-20.197 48.684-46.621 48.684s-53.965-21.797-53.965-48.684z" fill="#ffbe9d"/><path d="m345.307 248.597c0 75.979-67.709 129.004-151.231 129.004s-151.232-53.025-151.232-129.004 67.709-137.573 151.231-137.573 151.232 61.593 151.232 137.573z" fill="#ffd3bd"/><path d="m245.85 134.997c0 19.454 28.136 79.793 81.85 82.085 10.829.462 19.539-8.763 18.552-19.556-2.374-25.971-17.336-70.188-70.9-83.058z" fill="#4e5660"/><path d="m142.301 134.997c0 19.454-28.136 79.793-81.85 82.085-10.829.462-19.539-8.763-18.552-19.556 2.374-25.971 17.336-70.188 70.9-83.058z" fill="#4e5660"/><path d="m56.358 153.861c10.341 20.663 30.014 34.729 51.33 43.413 22.842-20.021 34.613-49.696 34.613-62.277l-29.503-20.529c-28.331 6.806-45.858 22.385-56.44 39.393z" fill="#404656"/><path d="m275.353 114.467-29.503 20.529c0 9.825 7.181 30.076 21.204 48.014 18.4-10.781 30.161-19.896 49.596-23.996 5.294-1.117 10.196-3.218 14.542-6.085-10.64-16.642-28.027-31.779-55.839-38.462z" fill="#404656"/><path d="m79.992 122.853c0-52.935 153.524-89.893 235.693-13.151 6.598 6.162 3.421 17.209-5.413 19.072-45.817 9.664-58.758 39.653-116.75 48.602-46.453 7.168-113.53-12.195-113.53-54.523z" fill="#4e5660"/><g><path d="m403.806 42.89c-59.754 0-108.194 36.156-108.194 80.756 0 18.839 8.643 36.171 23.13 49.908 1.017.964 1.49 2.361 1.236 3.739-1.695 9.17-4.636 20.065-8.948 28.851-3.663 7.464 2.445 16.034 10.69 14.964 16.128-2.093 31.027-7.637 43.708-19.854 1.033-.995 2.486-1.398 3.877-1.048 10.836 2.72 22.437 4.196 34.501 4.196 59.754 0 108.194-36.156 108.194-80.756s-48.44-80.756-108.194-80.756z" fill="#fbf1cf"/><g fill="#89d47f"><path d="m438.135 150.769h-68.659c-4.142 0-7.5-3.358-7.5-7.5s3.358-7.5 7.5-7.5h68.659c4.142 0 7.5 3.358 7.5 7.5s-3.358 7.5-7.5 7.5z"/><path d="m454.457 111.524h-101.303c-4.142 0-7.5-3.358-7.5-7.5s3.358-7.5 7.5-7.5h101.304c4.142 0 7.5 3.358 7.5 7.5s-3.358 7.5-7.501 7.5z"/></g></g><g><g><ellipse cx="112.027" cy="274.094" fill="#e8899e" rx="30.274" ry="24.109"/><ellipse cx="276.124" cy="274.094" fill="#e8899e" rx="30.274" ry="24.109"/><path d="m218.484 255.57c0-15.085-10.928-16.502-24.409-16.502-13.48 0-24.409 1.417-24.409 16.502s10.928 27.313 24.409 27.313 24.409-12.228 24.409-27.313z" fill="#4e5660"/></g><g fill="#4e5660"><path d="m117.088 252.811c-4.142 0-7.5-3.358-7.5-7.5v-12.362c0-4.142 3.358-7.5 7.5-7.5s7.5 3.358 7.5 7.5v12.362c0 4.142-3.358 7.5-7.5 7.5z"/><path d="m271.063 252.811c-4.142 0-7.5-3.358-7.5-7.5v-12.362c0-4.142 3.358-7.5 7.5-7.5s7.5 3.358 7.5 7.5v12.362c0 4.142-3.358 7.5-7.5 7.5z"/></g></g></g></svg>