<svg id="Layer_1" enable-background="new 0 0 256 256" height="512" viewBox="0 0 256 256" width="512" xmlns="http://www.w3.org/2000/svg"><g><circle cx="127.742" cy="120.25" fill="#f46275" r="95.578"/><g><path d="m127.742 24.672c-1.581 0-3.152.041-4.714.117 50.596 2.458 90.864 44.256 90.864 95.462s-40.268 93.004-90.864 95.462c1.562.076 3.133.116 4.714.116 52.786 0 95.578-42.792 95.578-95.578s-42.791-95.579-95.578-95.579z" fill="#f48875"/></g><path d="m41.592 120.25c0-51.206 40.268-93.004 90.864-95.462-1.562-.076-3.133-.117-4.714-.117-52.786 0-95.578 42.792-95.578 95.578s42.792 95.578 95.578 95.578c1.581 0 3.152-.041 4.714-.116-50.596-2.457-90.864-44.255-90.864-95.461z" fill="#f43075"/><circle cx="127.742" cy="120.25" fill="#f8af23" r="48.657"/><g><path d="m127.742 71.593c-1.591 0-3.162.082-4.714.231 24.66 2.372 43.943 23.144 43.943 48.426 0 25.281-19.283 46.054-43.943 48.426 1.552.149 3.123.231 4.714.231 26.872 0 48.657-21.784 48.657-48.657s-21.784-48.657-48.657-48.657z" fill="#f8d323"/></g><path d="m88.514 120.25c0-25.282 19.283-46.054 43.943-48.426-1.552-.149-3.123-.231-4.714-.231-26.872 0-48.657 21.784-48.657 48.657s21.784 48.657 48.657 48.657c1.591 0 3.162-.082 4.714-.231-24.66-2.372-43.943-23.145-43.943-48.426z" fill="#f87023"/><g fill="#63bce7"><path d="m97.805 148.515c0-16.534 13.403-29.937 29.937-29.937s29.937 13.403 29.937 29.937z"/><circle cx="127.742" cy="102.597" r="15.981"/></g><path d="m245.356 120.287-16.146-16.146c-3.516-3.515-9.213-3.515-12.729 0l-16.146 16.146c-3.515 3.515-3.515 9.213 0 12.728 3.516 3.515 9.213 3.515 12.729 0l.363-.363c-6.034 41.885-42.157 74.177-85.686 74.177-4.971 0-9 4.029-9 9s4.029 9 9 9c53.679 0 98.034-40.655 103.91-92.79l.976.976c1.758 1.757 4.061 2.636 6.364 2.636s4.606-.879 6.364-2.636c3.516-3.515 3.516-9.214.001-12.728z" fill="#63bce7"/><path d="m127.742 15.672c-54.992 0-100.205 42.666-104.278 96.633l-.092-.092c-3.516-3.515-9.213-3.514-12.729 0-3.515 3.515-3.515 9.213 0 12.728l16.146 16.146c1.688 1.688 3.978 2.636 6.364 2.636s4.676-.948 6.364-2.636l16.146-16.146c3.515-3.515 3.515-9.213 0-12.728-3.516-3.515-9.213-3.514-12.729 0l-1.528 1.528c3.339-44.711 40.784-80.07 86.334-80.07 4.971 0 9-4.029 9-9s-4.027-8.999-8.998-8.999z" fill="#f8af23"/><g fill="#321f7a"><path d="m127.742 170.407c27.657 0 50.157-22.5 50.157-50.157s-22.5-50.157-50.157-50.157-50.157 22.5-50.157 50.157 22.5 50.157 50.157 50.157zm0-97.314c26.003 0 47.157 21.155 47.157 47.157s-21.154 47.157-47.157 47.157-47.157-21.155-47.157-47.157 21.154-47.157 47.157-47.157z"/><path d="m97.806 150.015h59.873c.828 0 1.5-.671 1.5-1.5 0-14.566-9.959-26.847-23.425-30.399 5.616-2.911 9.469-8.769 9.469-15.519 0-9.639-7.842-17.481-17.48-17.481s-17.48 7.842-17.48 17.481c0 6.75 3.853 12.607 9.469 15.519-13.465 3.552-23.425 15.833-23.425 30.399-.001.828.671 1.5 1.499 1.5zm15.456-47.418c0-7.985 6.496-14.481 14.48-14.481s14.48 6.496 14.48 14.481c0 7.984-6.496 14.48-14.48 14.48s-14.48-6.495-14.48-14.48zm14.48 17.481c15.177 0 27.614 11.952 28.397 26.937h-56.794c.783-14.986 13.22-26.937 28.397-26.937z"/><path d="m133.727 96.94-8.536 8.042-3.312-3.938c-.533-.634-1.48-.715-2.114-.183-.634.533-.716 1.479-.183 2.113l4.334 5.153c.266.316.649.508 1.062.532.029.001.058.002.087.002.381 0 .75-.146 1.028-.408l9.691-9.13c.604-.568.632-1.518.063-2.12-.569-.603-1.52-.63-2.12-.063z"/><path d="m27.065 238.828h-18.003c-.828 0-1.5.671-1.5 1.5s.672 1.5 1.5 1.5h18.003c.828 0 1.5-.671 1.5-1.5s-.671-1.5-1.5-1.5z"/><path d="m246.422 238.828h-18.003c-.828 0-1.5.671-1.5 1.5s.672 1.5 1.5 1.5h18.003c.828 0 1.5-.671 1.5-1.5s-.672-1.5-1.5-1.5z"/><path d="m218.222 238.828h-180.959c-.828 0-1.5.671-1.5 1.5s.672 1.5 1.5 1.5h180.959c.828 0 1.5-.671 1.5-1.5s-.672-1.5-1.5-1.5z"/><path d="m246.422 223.328h-93.546c41.48-10.065 73.767-44.511 79.9-88.214 1.791 1.322 3.949 2.036 6.217 2.036 2.804 0 5.441-1.092 7.425-3.076 4.094-4.094 4.094-10.755 0-14.849l-16.146-16.146c-2.084-2.083-4.834-3.1-7.571-3.062-4.26-20.102-14.612-38.037-29.972-51.887-15.304-13.798-34.141-22.207-54.533-24.387-.472-5.356-4.976-9.572-10.453-9.572-26.885 0-52.546 10.115-72.257 28.481-18.934 17.644-30.684 41.277-33.276 66.804-4.007-2.283-9.212-1.717-12.627 1.698-4.094 4.094-4.094 10.755 0 14.849l16.146 16.146c1.984 1.983 4.621 3.075 7.425 3.075.254 0 .505-.019.757-.037 10.254 38.68 43.588 67.309 83.379 71.574.227 2.564 1.377 4.864 3.118 6.567h-111.346c-.828 0-1.5.671-1.5 1.5s.672 1.5 1.5 1.5h237.359c.828 0 1.5-.671 1.5-1.5s-.671-1.5-1.499-1.5zm-218.571-83.301-16.146-16.146c-2.924-2.924-2.924-7.683 0-10.606 1.463-1.462 3.383-2.193 5.305-2.193 1.92 0 3.841.731 5.303 2.192l.092.092c.415.415 1.034.55 1.582.346.55-.204.93-.709.975-1.293 4.031-53.409 49.179-95.246 102.782-95.246 4.136 0 7.5 3.364 7.5 7.5s-3.364 7.5-7.5 7.5c-45.839 0-84.419 35.781-87.83 81.458-.047.625.301 1.214.871 1.475.568.263 1.242.142 1.686-.303l1.527-1.527c2.924-2.924 7.682-2.926 10.607-.001 2.924 2.924 2.924 7.683 0 10.607l-16.146 16.146c-1.417 1.417-3.301 2.197-5.304 2.197s-3.887-.782-5.304-2.198zm8.996 4.52c1.383-.52 2.656-1.323 3.732-2.399l16.146-16.146c4.094-4.094 4.094-10.755 0-14.85-3.651-3.651-9.348-4.044-13.44-1.182 5.122-42.248 41.488-74.799 84.458-74.799 5.08 0 9.327-3.627 10.292-8.427 19.698 2.14 37.894 10.279 52.685 23.614 14.846 13.387 24.863 30.711 29.011 50.127-1.577.487-3.063 1.349-4.309 2.594l-16.146 16.146c-1.983 1.983-3.075 4.62-3.075 7.424s1.092 5.441 3.075 7.425c3.258 3.256 8.143 3.921 12.062 1.996-7.512 39.735-42.813 69.257-83.597 69.257-5.082 0-9.329 3.629-10.293 8.431-38.443-4.187-70.639-31.845-80.601-69.211zm83.395 71.281c0-4.136 3.364-7.5 7.5-7.5 43.498 0 80.974-32.442 87.171-75.463.093-.639-.235-1.266-.812-1.555-.213-.107-.443-.159-.672-.159-.389 0-.772.151-1.06.438l-.364.363c-2.924 2.925-7.684 2.923-10.607 0-1.416-1.417-2.196-3.3-2.196-5.303s.78-3.887 2.196-5.303l16.146-16.145c2.924-2.925 7.684-2.923 10.607 0l16.146 16.146c2.924 2.924 2.924 7.682 0 10.606-1.417 1.417-3.301 2.197-5.304 2.197s-3.887-.78-5.304-2.197l-.976-.976c-.408-.408-1.011-.546-1.556-.355-.544.19-.931.675-.995 1.248-5.877 52.14-49.907 91.458-102.42 91.458-4.136 0-7.5-3.364-7.5-7.5z"/></g></g></svg>