<?xml version="1.0" encoding="iso-8859-1"?>
<!-- Generator: Adobe Illustrator 19.0.0, SVG Export Plug-In . SVG Version: 6.00 Build 0)  -->
<svg version="1.1" id="Capa_1" xmlns="http://www.w3.org/2000/svg" xmlns:xlink="http://www.w3.org/1999/xlink" x="0px" y="0px"
	 viewBox="0 0 460.016 460.016" style="enable-background:new 0 0 460.016 460.016;" xml:space="preserve">
<path style="fill:#78B9EB;" d="M324.432,67.672L41.976,350.136l33.936,33.944l33.944,33.936L392.32,135.56L324.432,67.672z"/>
<path style="fill:#1E81CE;" d="M443.608,16.384c-21.881-21.846-57.319-21.846-79.2,0L19.352,361.448
	c-1.118,1.116-1.881,2.539-2.192,4.088l-16.968,84.88c-0.884,4.329,1.909,8.555,6.238,9.438c0.527,0.108,1.064,0.162,1.602,0.162
	c0.538,0.004,1.074-0.049,1.6-0.16l84.824-17.024c1.549-0.311,2.972-1.074,4.088-2.192L443.608,95.576
	C465.448,73.696,465.448,38.264,443.608,16.384L443.608,16.384z M36.32,367.112l5.656-5.664l56.568,56.568l-5.664,5.656
	L36.32,367.112z M53.288,350.136L324.816,78.608l22.632,22.624L75.912,372.768L53.288,350.136z M87.224,384.08L358.76,112.544
	l22.624,22.672L109.856,406.704L87.224,384.08z M336.128,67.28l5.656-5.656l56.592,56.584l-5.656,5.656L336.128,67.28z
	 M29.92,383.336l46.736,46.736l-58.4,11.688L29.92,383.336z M432.32,84.264l-22.648,22.632L353.096,50.32l22.632-22.624
	c15.689-15.552,41.016-15.441,56.568,0.248c15.456,15.592,15.456,40.728,0,56.32H432.32z"/>
<g>
</g>
<g>
</g>
<g>
</g>
<g>
</g>
<g>
</g>
<g>
</g>
<g>
</g>
<g>
</g>
<g>
</g>
<g>
</g>
<g>
</g>
<g>
</g>
<g>
</g>
<g>
</g>
<g>
</g>
</svg>
