<?xml version="1.0" encoding="UTF-8"?>
<svg xmlns="http://www.w3.org/2000/svg" xmlns:xlink="http://www.w3.org/1999/xlink" width="64pt" height="64pt" viewBox="0 0 64 64" version="1.1">
<g id="surface1504319">
<path style=" stroke:none;fill-rule:nonzero;fill:rgb(100%,100%,100%);fill-opacity:1;" d="M 32 3 C 15.984375 3 3 15.984375 3 32 C 3 48.015625 15.984375 61 32 61 C 48.015625 61 61 48.015625 61 32 C 61 15.984375 48.015625 3 32 3 Z M 32 3 "/>
<path style=" stroke:none;fill-rule:nonzero;fill:rgb(5.882353%,17.254902%,36.078431%);fill-opacity:1;" d="M 32 61 C 16.011719 61 3 47.992188 3 32 C 3 16.007812 16.011719 3 32 3 C 47.988281 3 61 16.007812 61 32 C 61 47.992188 47.988281 61 32 61 Z M 32 5 C 17.113281 5 5 17.113281 5 32 C 5 46.886719 17.113281 59 32 59 C 46.886719 59 59 46.886719 59 32 C 59 17.113281 46.886719 5 32 5 Z M 32 5 "/>
<path style=" stroke:none;fill-rule:nonzero;fill:rgb(5.882353%,17.254902%,36.078431%);fill-opacity:1;" d="M 55.648438 36.945312 C 55.597656 36.945312 55.539062 36.941406 55.484375 36.933594 L 53.511719 36.605469 C 52.96875 36.515625 52.597656 36 52.691406 35.453125 C 52.78125 34.910156 53.292969 34.539062 53.839844 34.632812 L 55.8125 34.960938 C 56.355469 35.050781 56.726562 35.5625 56.636719 36.109375 C 56.554688 36.597656 56.132812 36.945312 55.648438 36.945312 Z M 54.34375 41.71875 C 54.222656 41.71875 54.097656 41.695312 53.980469 41.648438 L 52.117188 40.921875 C 51.601562 40.722656 51.347656 40.140625 51.550781 39.628906 C 51.75 39.113281 52.332031 38.859375 52.84375 39.058594 L 54.707031 39.785156 C 55.222656 39.988281 55.476562 40.566406 55.273438 41.082031 C 55.121094 41.476562 54.742188 41.71875 54.34375 41.71875 Z M 52.082031 46.121094 C 51.894531 46.121094 51.703125 46.070312 51.535156 45.957031 L 49.859375 44.863281 C 49.398438 44.558594 49.269531 43.941406 49.570312 43.476562 C 49.875 43.015625 50.496094 42.886719 50.957031 43.1875 L 52.628906 44.285156 C 53.09375 44.589844 53.222656 45.207031 52.917969 45.667969 C 52.726562 45.960938 52.40625 46.121094 52.082031 46.121094 Z M 48.972656 49.972656 C 48.714844 49.972656 48.460938 49.871094 48.265625 49.679688 L 46.851562 48.261719 C 46.460938 47.871094 46.460938 47.238281 46.851562 46.847656 C 47.242188 46.457031 47.871094 46.457031 48.265625 46.847656 L 49.679688 48.265625 C 50.070312 48.65625 50.070312 49.289062 49.679688 49.679688 C 49.480469 49.871094 49.226562 49.972656 48.972656 49.972656 Z M 45.121094 53.082031 C 44.796875 53.082031 44.476562 52.921875 44.285156 52.628906 L 43.1875 50.957031 C 42.886719 50.492188 43.015625 49.875 43.476562 49.570312 C 43.941406 49.269531 44.558594 49.398438 44.863281 49.863281 L 45.957031 51.535156 C 46.261719 51.996094 46.132812 52.617188 45.667969 52.917969 C 45.5 53.027344 45.308594 53.082031 45.121094 53.082031 Z M 40.71875 55.34375 C 40.320312 55.34375 39.941406 55.101562 39.785156 54.707031 L 39.058594 52.84375 C 38.859375 52.328125 39.113281 51.75 39.625 51.546875 C 40.144531 51.347656 40.722656 51.601562 40.921875 52.117188 L 41.648438 53.980469 C 41.851562 54.492188 41.597656 55.074219 41.082031 55.273438 C 40.964844 55.320312 40.839844 55.34375 40.71875 55.34375 Z M 35.945312 56.648438 C 35.464844 56.648438 35.039062 56.300781 34.960938 55.8125 L 34.632812 53.839844 C 34.542969 53.296875 34.910156 52.78125 35.457031 52.691406 C 36 52.597656 36.515625 52.96875 36.605469 53.511719 L 36.933594 55.484375 C 37.023438 56.03125 36.652344 56.546875 36.109375 56.636719 C 36.054688 56.644531 36 56.648438 35.945312 56.648438 Z M 35.945312 56.648438 "/>
<path style=" stroke:none;fill-rule:nonzero;fill:rgb(5.882353%,17.254902%,36.078431%);fill-opacity:1;" d="M 43.632812 14.882812 L 25.578125 18.304688 C 24.71875 18.453125 24.089844 19.203125 24.089844 20.078125 L 24.089844 37.566406 C 24.089844 38.167969 23.679688 38.695312 23.097656 38.84375 L 18.554688 40 L 18.171875 40.09375 C 16.445312 40.605469 15.140625 42.097656 14.902344 43.929688 C 14.84375 44.355469 14.847656 44.78125 14.914062 45.210938 C 15.273438 47.535156 17.472656 49.136719 19.824219 49.136719 L 19.957031 49.136719 C 23.695312 49.136719 26.726562 46.105469 26.726562 42.367188 L 26.726562 28.476562 C 26.726562 27.585938 27.363281 26.824219 28.242188 26.671875 L 40.996094 24.1875 C 41.804688 24.046875 42.546875 24.667969 42.546875 25.484375 L 42.546875 33.609375 C 42.546875 34.214844 42.136719 34.738281 41.550781 34.886719 L 37.007812 36.046875 L 36.625 36.136719 C 34.898438 36.652344 33.59375 38.140625 33.355469 39.972656 C 33.300781 40.398438 33.304688 40.828125 33.371094 41.257812 C 33.730469 43.578125 35.925781 45.179688 38.28125 45.179688 L 38.414062 45.179688 C 42.148438 45.179688 45.179688 42.148438 45.179688 38.410156 L 45.179688 16.183594 C 45.183594 15.363281 44.441406 14.742188 43.632812 14.882812 Z M 43.632812 14.882812 "/>
</g>
</svg>
