<svg id="Capa_1" enable-background="new 0 0 512 512" height="512" viewBox="0 0 512 512" width="512" xmlns="http://www.w3.org/2000/svg"><g><path d="m270.722 163.769v-46.908c0-15.326 12.469-27.795 27.794-27.795 15.326 0 27.794 12.469 27.794 27.795 0 32.084 26.102 58.186 58.186 58.186h1.838c33.098 0 60.024-26.927 60.024-60.024v-115.023h-29.858v115.023c0 16.633-13.532 30.165-30.165 30.165h-1.838c-15.62 0-28.327-12.708-28.327-28.327 0-31.79-25.863-57.654-57.653-57.654s-57.653 25.863-57.653 57.654v46.935c4.969-.558 9.986-.848 15.034-.848 4.976 0 9.924.278 14.824.821z"/><path d="m118.263 311.904h29.859v29.859h-29.859z"/><circle cx="376.717" cy="326.833" r="14.93"/><path d="m507.624 406.67-46.25-133.388c-7.662-24.837-25.465-45.542-48.884-56.835-23.507-11.335-50.91-12.341-75.182-2.758-3.75 1.48-7.393 3.193-10.904 5.126-7.165-6.383-15.124-11.722-23.634-15.921-14.425-7.117-30.437-10.945-46.874-10.945-15.622 0-30.855 3.479-44.715 9.934-9.289 4.326-17.968 9.976-25.712 16.861-3.471-1.903-7.071-3.593-10.776-5.055-24.274-9.583-51.676-8.579-75.183 2.758-23.419 11.293-41.222 31.998-48.884 56.835l-46.25 133.388c-6.234 17.98-5.795 37.619 1.237 55.303 7.032 17.683 20.2 32.262 37.078 41.051 11.618 6.047 24.177 8.976 36.621 8.976 21.99 0 43.624-9.145 59.077-26.377l79.605-88.767c6.235-6.951 14.213-11.978 22.972-14.682v-36.152h29.859v36.09c-4.765-1.449-9.754-2.223-14.826-2.223-5.145 0-10.206.795-15.034 2.285v30.049h29.859v-30.112c8.841 2.688 16.896 7.737 23.18 14.744l79.605 88.767c24.199 26.982 63.551 34.137 95.697 17.399 16.879-8.789 30.047-23.367 37.079-41.051 7.034-17.681 7.473-37.321 1.239-55.3zm-329.642-64.907h-29.859v29.859h-29.859v-29.859h-29.86v-29.859h29.859v-29.859h29.859v29.859h29.859v29.859zm112.923-45.4h-70.018v-29.859h70.018zm85.812 75.259c-24.696 0-44.789-20.092-44.789-44.789s20.092-44.789 44.789-44.789 44.789 20.092 44.789 44.789c-.001 24.697-20.093 44.789-44.789 44.789z"/></g></svg>