<?xml version="1.0"?>
<svg xmlns="http://www.w3.org/2000/svg" id="Outline" viewBox="0 0 512 512" width="512px" height="512px" class=""><g><path d="M88,328.805A40.068,40.068,0,0,0,56,368v48a40.045,40.045,0,0,0,40,40h24v8a8,8,0,0,0,8,8h32a8,8,0,0,0,8-8v-8h24a24.028,24.028,0,0,0,24-24V352a24.028,24.028,0,0,0-24-24H168v-8a8,8,0,0,0-8-8H136V272a120,120,0,0,1,240,0v40H352a8,8,0,0,0-8,8v8H320a24.028,24.028,0,0,0-24,24v80a24.028,24.028,0,0,0,24,24h24v8a8,8,0,0,0,8,8h32a8,8,0,0,0,8-8v-8h24a40.045,40.045,0,0,0,40-40V368a40.068,40.068,0,0,0-32-39.195V272c0-92.636-75.364-168-168-168S88,179.364,88,272ZM192,344a8.009,8.009,0,0,1,8,8v80a8.009,8.009,0,0,1-8,8H168V344Zm128,96a8.009,8.009,0,0,1-8-8V352a8.009,8.009,0,0,1,8-8h24v96ZM96,440a24.028,24.028,0,0,1-24-24V368a24.028,24.028,0,0,1,24-24h24v96Zm56,16H136V328h16Zm224,0H360V328h16Zm64-88v48a24.028,24.028,0,0,1-24,24H392V344h24A24.028,24.028,0,0,1,440,368ZM256,120c83.813,0,152,68.187,152,152v56H392V272c0-74.991-61.01-136-136-136S120,197.009,120,272v56H104V272C104,188.187,172.187,120,256,120Z" data-original="#000000" class="active-path" data-old_color="#000000" fill="#0F2C5C"/><path d="M40,168a24.027,24.027,0,0,0,24-24V70.246l48-12v47.13A24,24,0,1,0,128,128V48a8,8,0,0,0-9.94-7.761l-64,16A8,8,0,0,0,48,64v57.376A24,24,0,1,0,40,168Zm64-32a8,8,0,1,1,8-8A8.009,8.009,0,0,1,104,136Zm-64,0a8,8,0,1,1-8,8A8.009,8.009,0,0,1,40,136Z" data-original="#000000" class="active-path" data-old_color="#000000" fill="#0F2C5C"/><path d="M408,152a24.027,24.027,0,0,0,24-24V54.246l57.94-14.485a8,8,0,1,0-3.88-15.522l-64,16A8,8,0,0,0,416,48v57.376A24,24,0,1,0,408,152Zm0-32a8,8,0,1,1-8,8A8.009,8.009,0,0,1,408,120Z" data-original="#000000" class="active-path" data-old_color="#000000" fill="#0F2C5C"/><path d="M264,208v57.376A24,24,0,1,0,280,288V208a8,8,0,0,0-16,0Zm-8,88a8,8,0,1,1,8-8A8.009,8.009,0,0,1,256,296Z" data-original="#000000" class="active-path" data-old_color="#000000" fill="#0F2C5C"/></g> </svg>
