<svg id="Layer_1" enable-background="new 0 0 512 512" height="512" viewBox="0 0 512 512" width="512" xmlns="http://www.w3.org/2000/svg"><g><g><path d="m262.735 115.391 52.23 38.793 121.213 357.816h-346.886l108.992-321.744z" fill="#6f7fb5"/><path d="m266.3 132.167 128.67 379.833h41.208l-121.213-357.816z" fill="#6575b0"/><path d="m139.071 216.349 83.961 134.24 55.109 161.411h-278.141l64.052-187.603z" fill="#8696cf"/><path d="m118.467 165.02 118.467 346.98h41.207l-90.488-265.034z" fill="#7789c7"/><path d="m395.072 263.737 67.041 100.996 49.887 147.267h-233.857l63.853-188.492z" fill="#abbaeb"/><path d="m409.79 331.922 61.003 180.078h41.207l-52.641-155.395z" fill="#a2b3e8"/></g><g><path d="m389.755 302.884s14.321 49.089 72.357 61.849l-67.04-197.903-53.076 156.678c16.284 5.614 36.567 1.76 47.759-20.624z" fill="#f0f4ff"/></g><g><path d="m270.941 141.489s19.852 17.123 44.024 12.695l-52.23-154.184-64.45 190.256c18.658 3.214 53.627 1.489 72.656-48.767z" fill="#f0f4ff"/></g><g><path d="m114.376 297.797s14.981 27.809 53.746 12.945c0 0 10.1 39.977 54.91 39.847l-83.961-245.915-75.019 219.723c14.342 1.228 34.373-2.55 50.324-26.6z" fill="#f0f4ff"/></g></g></svg>