<svg id="Capa_1" enable-background="new 0 0 512 512" height="512" viewBox="0 0 512 512" width="512" xmlns="http://www.w3.org/2000/svg"><path d="m304.823 294.008-109.498-92.927v127.453c17.759 2.871 21.533 8.928 112.224 57.029l-2.726-1.48z" fill="#4ab7ff"/><path d="m304.823 127.859-82.192 44.633 82.192 69.609z" fill="#4ab7ff"/><g fill="#d2edff"><path d="m348.783 279.331c-.019-144.897.048-136.295-.054-137.845-.509-7.695-4.626-14.348-10.943-18.288-14.795-9.236-26.487 1.906-32.963 4.661v114.242c6.33 5.361 38.367 32.493 43.96 37.23z"/><path d="m318.257 305.409-13.434-11.401v90.074l2.726 1.48 7.165 3.891c15.438 8.383 34.07-2.98 34.07-20.638v-37.5l-30.524-25.904z"/><path d="m195.325 201.081-19.904-16.891h-13.664c-18.133 0-32.833 14.881-32.833 33.238v77.086c0 .574.014 1.144.043 1.71.877 17.528 15.188 31.528 32.79 31.528 23.342.113 26.434-.37 33.568.782z"/></g><path d="m498.718 243.961c-8.346-177.65-196.578-288.281-353.242-207.113-8.505 4.407-9.758 16.212-2.44 22.43l9.569 8.13c5.341 4.538 12.796 5.612 19.131 2.663 131.458-61.175 285.982 33.211 286.264 185.509.049 26.434-4.863 51.697-13.839 74.898-4.244 10.97-17.869 14.496-26.795 6.936l-68.583-58.083c-6.239-5.283-38.235-32.382-43.96-37.23-3.061-2.592-168.917-143.057-173.559-146.988.061-.048-20.461-17.683-20.461-17.683-6.613-5.618-16.376-5.388-22.619.649-46.501 44.966-75.409 108.418-75.182 178.712.437 135.694 108.966 245.184 243.006 245.18 56.788-.001 109.017-19.733 150.386-52.781 7.746-6.188 7.916-18.026.364-24.455l-7.327-6.237c-5.814-4.949-14.248-5.143-20.265-.449-33.852 26.408-76.204 42.195-122.196 42.414-111.137.528-202.974-91.99-202.97-204.499.002-46.462 15.313-89.301 41.101-123.637 4.066-5.414 11.763-6.318 16.911-1.949l63.409 53.813 19.904 16.891 109.498 92.927 13.434 11.401.003.002 30.524 25.904 63.656 54.022c-.039.048-.08.095-.119.143l11.205 9.538c11.346 9.658 28.515 7.105 36.574-5.49 26.599-41.573 41.144-91.786 38.618-145.568z" fill="#dcaee7"/><g><path d="m430.453 70.736c-81.402-78.405-198.224-90.066-289.578-42.741-6.927 3.588-11.593 10.393-12.481 18.204-.895 7.87 2.158 15.617 8.167 20.722l9.569 8.129c8.311 7.06 20.017 8.671 29.824 4.108 68.492-31.87 154.98-21.271 214.153 36.887 57.811 56.819 71.59 141.388 44.728 210.816-1.772 4.577-7.334 6.023-11.006 2.914l-65.046-55.082v-131.553c0-25.356-26.822-41.377-48.843-29.423l-86.069 46.733c-9.303-7.909-93.215-79.246-106.595-90.62-10.6-9.004-26.095-8.537-36.045 1.082-102.046 98.67-105.248 264.167-3.931 366.376 91.384 92.188 235.516 99.429 335.334 19.693 12.661-10.113 12.94-29.376.604-39.876l-7.327-6.237c-9.371-7.98-23.208-8.281-32.897-.72-74.297 57.952-181.126 54.042-251.261-15.754-70.856-70.515-75.946-179.773-18.658-256.048.617-.822 1.695-.968 2.445-.331l44.572 37.821c-17.975 5.134-31.189 21.832-31.189 41.596v77.077c0 23.839 19.215 43.233 42.833 43.233 16.861 1.262 30.494-3.421 48.182 6.186 15.899 8.632 89.183 48.422 100.002 54.297 22.088 11.992 48.842-4.146 48.842-29.422v-.001-15.896c11.196 9.553 48.54 41.417 58.259 49.709 15.959 13.585 40.165 9.969 51.479-7.713 64.279-100.44 52.363-237.066-38.067-324.166zm-91.669 72.404v114.618l-23.961-20.29v-103.645l4.663-2.532c8.856-4.809 19.298 1.828 19.298 11.849zm-98.538 31.174 54.577-29.633v75.849c-19.578-16.578-43.079-36.479-54.577-46.216zm-78.489 143.431c-12.59 0-22.833-10.424-22.833-23.236v-77.077c0-12.812 10.243-23.236 22.833-23.236h9.993l13.575 11.519v112.029h-23.568zm177.027 51.057c0 7.774-6.218 13.322-12.88 13.454-4.851.095-7.6-2.502-11.081-4.136v-62.516c2.901 2.462 23.546 19.98 23.961 20.332zm112.892 15.323c-4.78 7.468-14.893 9.03-21.67 3.263-.103-.087-149.104-126.953-142.48-121.177-4.212-3.574-10.521-3.056-14.095 1.153-3.574 4.21-3.058 10.52 1.153 14.093l20.238 17.174v68.629c-76.274-40.838-76.672-43.001-89.497-46.711v-97.862l7.762 6.587c4.832 4.101 12.202 2.724 15.244-2.821 2.238-4.077 1.382-9.299-2.303-12.425-4.624-3.924-106.906-90.716-107.546-91.259-9.498-8.059-23.84-6.466-31.378 3.568-63.077 83.979-57.645 204.423 20.541 282.231 77.717 77.342 195.935 81.101 277.671 17.347 2.28-1.779 5.418-1.704 7.631.18l7.327 6.237c2.778 2.365 2.705 6.767-.122 9.025-91.88 73.394-224.512 66.729-308.646-18.146-92.97-93.791-90.955-246.47 3.63-337.925 2.518-2.435 6.471-2.529 9.193-.217 52.49 44.598 173.772 147.639 306.575 259.966 14.142 11.977 35.862 6.417 42.584-10.958 29.673-76.695 14.312-169.714-49.359-232.293-64.368-63.264-159.575-76.601-236.613-40.757-2.75 1.28-6.061.801-8.437-1.218l-9.568-8.128c-1.899-1.613-1.636-4.79.564-5.931 84.453-43.748 191.876-32.49 266.503 39.389 83.555 80.478 94.238 206.569 35.098 298.986z"/><path d="m260.12 244.412c-1.843-4.491-6.662-6.899-11.19-5.979-5.573 1.132-8.903 6.485-7.85 11.758 1.152 5.565 6.48 8.912 11.76 7.849 6.22-1.262 9.684-7.855 7.28-13.628z"/></g></svg>