<svg id="Capa_1" enable-background="new 0 0 512 512" height="512" viewBox="0 0 512 512" width="512" xmlns="http://www.w3.org/2000/svg"><g><path d="m164.52 184.616c.83-.111 1.657-.238 2.48-.385v143.537c-.823-.147-1.649-.274-2.479-.385 17.122 2.259 19.803 7.821 110.292 55.166v-253.098c-91.988 48.128-93.244 52.917-110.293 55.165z" fill="#4ab7ff"/><path d="m290.593 121.931c-3.878.882-5.139 1.813-15.779 7.52v253.099c3.14 1.684 6.707 3.598 9.891 5.305 15.382 8.25 34.07-2.863 34.07-20.386v-222.937c-.002-15.323-14.304-25.759-28.182-22.601z" fill="#d2edff"/><path d="m256 10c-135.862 0-246 110.138-246 246s110.138 246 246 246 246-110.138 246-246-110.138-246-246-246zm0 450.592c-112.993 0-204.593-91.599-204.593-204.592s91.599-204.593 204.593-204.593c112.993 0 204.593 91.599 204.593 204.593s-91.6 204.592-204.593 204.592z" fill="#dcaee7"/><path d="m167 184.231c-23.704 4.247-47.177-7.309-62.478 15.339-3.652 5.406-5.607 11.752-5.607 18.357.229 80.262-.514 76.99.667 82.763.964 4.712 2.959 9.154 5.856 13.027 15.506 20.735 39.775 10.153 61.563 14.052v-143.538z" fill="#d2edff"/><g><path d="m312.653 116.1c-9.912-5.932-22.206-6.379-32.676-.767-10.473 5.618-85.693 45.966-101.583 54.489-21.035 11.282-42.632-.112-63.303 8.644-15.368 6.511-26.176 21.748-26.176 39.461v.001 76.146c0 23.618 19.215 42.833 42.833 42.833 23.292.027 33.728-1.657 46.646 5.271l101.584 54.489c22.078 11.842 48.796-4.148 48.796-29.199v-222.936c-.001-11.763-6.027-22.392-16.121-28.432zm-180.905 200.806c-12.59 0-22.833-10.243-22.833-22.833v-76.146c0-12.629 10.281-22.833 22.833-22.833h25.252v121.812zm45.252 3.06v-127.931c3.742-1.194 7.377-2.727 10.847-4.588l76.966-41.284v9.504c0 5.522 4.477 10 10 10s10-4.478 10-10v-20.232l4.618-2.477c8.82-4.732 19.342 1.674 19.342 11.574v222.936c0 4.732-2.329 8.841-6.39 11.271-8.489 5.081-15.213-1.37-17.57-2.173v-140.899c0-5.522-4.477-10-10-10s-10 4.478-10 10v130.17c-79.269-42.126-77.921-42.717-87.813-45.871z"/><path d="m352.709 184.396 41.686-27.833c4.593-3.066 5.831-9.276 2.764-13.869s-9.276-5.833-13.869-2.764l-41.686 27.833c-4.593 3.066-5.831 9.276-2.764 13.869s9.278 5.831 13.869 2.764z"/><path d="m394.395 355.438-41.686-27.833c-4.592-3.066-10.803-1.829-13.869 2.764-3.067 4.593-1.83 10.803 2.764 13.869l41.686 27.833c4.592 3.067 10.803 1.829 13.869-2.764 3.067-4.593 1.829-10.803-2.764-13.869z"/><path d="m388.842 246h-41.686c-5.523 0-10 4.478-10 10s4.477 10 10 10h41.686c5.523 0 10-4.478 10-10s-4.477-10-10-10z"/><path d="m256 41.407c-118.599 0-214.593 95.978-214.593 214.593 0 118.598 95.976 214.593 214.593 214.593 118.599 0 214.593-95.976 214.593-214.593 0-118.6-95.978-214.593-214.593-214.593zm0 409.186c-107.299 0-194.593-87.294-194.593-194.593s87.294-194.593 194.593-194.593 194.593 87.294 194.593 194.593-87.294 194.593-194.593 194.593z"/><path d="m256 0c-141.483 0-256 114.498-256 256 0 141.483 114.497 256 256 256 141.483 0 256-114.498 256-256 0-141.483-114.497-256-256-256zm0 492c-130.43 0-236-105.551-236-236 0-130.429 105.551-236 236-236 130.43 0 236 105.551 236 236 0 130.429-105.551 236-236 236z"/><path d="m274.813 205.691c5.523 0 10-4.478 10-10v-.024c0-5.522-4.477-9.988-10-9.988s-10 4.49-10 10.013 4.478 9.999 10 9.999z"/></g></g></svg>