<svg width="24" height="21" viewBox="0 -1 24 21" xmlns="http://www.w3.org/2000/svg"><g id="audio-button" fill="#338C99" fill-rule="evenodd"><path id="audio-playback" d="M5.33 14.456l5.036 4.318c.533.458 1.34.065 1.34-.652V.85c0-.718-.807-1.11-1.34-.654L5.33 4.516l-4.646.68A.84.84 0 0 0 0 6.03v6.91c0 .414.29.768.684.836l4.647.68z"></path><path d="M5.33 14.456l5.036 4.318c.533.458 1.34.065 1.34-.652V.85c0-.718-.807-1.11-1.34-.654L5.33 4.516l-4.646.68A.84.84 0 0 0 0 6.03v6.91c0 .414.29.768.684.836l4.647.68zm-3.694-2.223V6.755l4.35-.752a.806.806 0 0 0 .39-.184l3.694-3.186v13.702L6.375 13.15a.806.806 0 0 0-.388-.182l-4.35-.735zM23.572 9.585c0-3.518-1.318-6.826-3.635-9.315a.83.83 0 0 0-1.204-.023.904.904 0 0 0-.022 1.246c2.015 2.165 3.16 5.035 3.16 8.092 0 3.07-1.155 5.953-3.185 8.12a.904.904 0 0 0 .02 1.246.83.83 0 0 0 1.203-.018c2.335-2.492 3.664-5.813 3.664-9.347z"></path><path d="M16.782 14.642a7.87 7.87 0 0 0 1.67-4.87 7.87 7.87 0 0 0-1.733-4.95.8.8 0 0 0-1.153-.108.868.868 0 0 0-.104 1.193 6.138 6.138 0 0 1 1.352 3.864 6.14 6.14 0 0 1-1.304 3.804.868.868 0 0 0 .12 1.19.8.8 0 0 0 1.152-.122z"></path></g></svg>
