<?xml version="1.0" encoding="iso-8859-1"?>
<!-- Generator: Adobe Illustrator 19.0.0, SVG Export Plug-In . SVG Version: 6.00 Build 0)  -->
<svg version="1.1" id="Capa_1" xmlns="http://www.w3.org/2000/svg" xmlns:xlink="http://www.w3.org/1999/xlink" x="0px" y="0px"
	 viewBox="0 0 512 512" style="enable-background:new 0 0 512 512;" xml:space="preserve">
<g>
	<g>
		<path d="M358.414,21.311c-7.592-3.316-16.435,0.15-19.752,7.74c-3.316,7.59,0.148,16.434,7.739,19.75
			C428.771,84.793,481.996,166.123,482,255.996c0,89.877-53.228,171.209-135.605,207.201c-7.592,3.316-11.057,12.16-7.74,19.752
			c2.463,5.637,7.973,8.998,13.754,8.998c2.004,0,4.043-0.404,5.998-1.26C451.711,449.92,512,357.799,512,255.994
			C511.996,154.197,451.709,62.078,358.414,21.311z"/>
	</g>
</g>
<g>
	<g>
		<path d="M362.412,137.052c-6.172-5.525-15.654-5.002-21.181,1.17c-5.525,6.174-5.001,15.656,1.171,21.182
			c27.452,24.574,43.197,59.781,43.197,96.594s-15.745,72.018-43.197,96.594c-6.172,5.525-6.696,15.008-1.171,21.18
			c2.963,3.311,7.063,4.996,11.181,4.996c3.563,0,7.138-1.262,10-3.824c33.801-30.258,53.188-73.613,53.188-118.947
			S396.213,167.309,362.412,137.052z"/>
	</g>
</g>
<g>
	<g>
		<path d="M262.779,57.85c-5.041-2.555-11.092-2.057-15.65,1.285l-116.54,85.461H15c-8.284,0-15,6.715-15,15v192.801
			c0,8.283,6.716,15,15,15h115.589l116.54,85.463c2.623,1.924,5.738,2.904,8.872,2.904c2.314,0,4.638-0.535,6.778-1.621
			c5.043-2.555,8.221-7.727,8.221-13.379V71.231C271,65.578,267.822,60.404,262.779,57.85z"/>
	</g>
</g>
<g>
</g>
<g>
</g>
<g>
</g>
<g>
</g>
<g>
</g>
<g>
</g>
<g>
</g>
<g>
</g>
<g>
</g>
<g>
</g>
<g>
</g>
<g>
</g>
<g>
</g>
<g>
</g>
<g>
</g>
</svg>
