<svg id="Glyph" enable-background="new 0 0 64 64" height="512" viewBox="0 0 64 64" width="512" xmlns="http://www.w3.org/2000/svg"><path d="m51 3-3 10h5v4h1c1.103 0 2-.897 2-2h2c0 2.206-1.794 4-4 4h-1v3c0 1.105.895 2 2 2h6v-21z"/><path d="m60.88 31.85c-4.189-1.457-9.144-.262-12.305 2.824.293-.17.657-.208.98-.034 1.325.713 2.496 1.645 3.455 2.751.388.448.31 1.134-.173 1.478-.411.293-.986.241-1.315-.143-.815-.952-1.802-1.737-2.948-2.344-.449-.238-.625-.794-.423-1.26.014-.033.043-.053.06-.084-.013.014-.028.027-.042.042-5.63-2.47-13.23-.86-17.03 4.04l-.139-.12c-1.8-1.23-2.59-1.74-4-2-1.24-.23-2.23-.21-2.79-.06.29-1.24.44-2.52.45-3.79.016-2.2-.332-4.381-.505-6.568-.491-.332-.969-.685-1.419-1.081-3.01-2.662-4.736-6.489-4.736-10.501 0-1.029.108-2.038.323-3.019l-1.323 1.019-.44.3c-.53.25-1.06.52-1.5.91-1.1.96-1.42 2.69-1.93 4.01-.66 1.69-1.32 3.38-1.98 5.08-1.34 3.42-2.68 6.85-4.01 10.27-.77 1.97-1.55 7.96-2.07 10.01-.38 1.5-.64 3.07-1.42 4.41 1.18.7 2.35 1.4 3.53 2.09 9.07 5.39 20.63 9.33 31.16 10.22 5.08.43 16.79-.28 21.66-4.3h1v-24.15zm-35.966 6.349c-.708 2.407-1.896 4.503-3.488 6.153-.406.421-1.082.415-1.467-.025l-.017-.019c-.33-.376-.338-.952.011-1.31 1.382-1.421 2.418-3.246 3.04-5.356.151-.511.654-.83 1.173-.711l.027.006c.563.128.884.708.721 1.262zm6.515 2.247c-.292.456-.548.936-.766 1.437-.201.462-.741.674-1.218.513-.559-.189-.833-.819-.595-1.359.248-.565.538-1.108.867-1.626.317-.499.994-.62 1.462-.26.398.306.521.871.25 1.295z"/><path d="m32 3c-4.84 0-9 2.86-10.9 6.97-.71 1.53-1.1 3.23-1.1 5.03 0 3.58 1.57 6.8 4.06 9 2.12 1.87 4.89 3 7.94 3 6.63 0 12-5.37 12-12s-5.37-12-12-12zm0 20c-4.418 0-8-3.582-8-8s3.582-8 8-8 8 3.582 8 8-3.582 8-8 8z"/><path d="m37 15c0 1.105-2.155 1.397-2.879 2.121s-1.016 2.879-2.121 2.879-1.397-2.155-2.121-2.879-2.879-1.016-2.879-2.121 2.155-1.397 2.879-2.121 1.016-2.879 2.121-2.879 1.397 2.155 2.121 2.879 2.879 1.016 2.879 2.121z"/></svg>